<mxfile host="app.diagrams.net" modified="2024-02-23T07:12:34.759Z" agent="Mozilla/5.0 (Windows NT 10.0; Win64; x64) AppleWebKit/537.36 (KHTML, like Gecko) Chrome/122.0.0.0 Safari/537.36" etag="X0QK1ntjwZur9O6XHp9e" version="23.0.1" type="device" pages="2">
  <diagram name="Page-1" id="b520641d-4fe3-3701-9064-5fc419738815">
    <mxGraphModel dx="989" dy="1276" grid="1" gridSize="10" guides="1" tooltips="1" connect="1" arrows="1" fold="1" page="1" pageScale="1" pageWidth="1100" pageHeight="850" background="none" math="0" shadow="0">
      <root>
        <mxCell id="0" />
        <mxCell id="1" parent="0" />
        <mxCell id="BUxcxvhgxLQ51h7OhQjl-6" style="edgeStyle=orthogonalEdgeStyle;rounded=0;orthogonalLoop=1;jettySize=auto;html=1;exitX=0.5;exitY=1;exitDx=0;exitDy=0;" edge="1" parent="1" source="21ea969265ad0168-6" target="BUxcxvhgxLQ51h7OhQjl-3">
          <mxGeometry relative="1" as="geometry" />
        </mxCell>
        <mxCell id="21ea969265ad0168-6" value="1.1" style="swimlane;html=1;fontStyle=0;childLayout=stackLayout;horizontal=1;startSize=26;horizontalStack=0;resizeParent=1;resizeLast=0;collapsible=1;marginBottom=0;swimlaneFillColor=#ffffff;align=center;rounded=1;shadow=0;comic=0;labelBackgroundColor=none;strokeWidth=1;fontFamily=Verdana;fontSize=12;fillColor=#dae8fc;strokeColor=#6c8ebf;" parent="1" vertex="1">
          <mxGeometry x="474" y="50" width="110" height="90" as="geometry" />
        </mxCell>
        <mxCell id="21ea969265ad0168-8" value="&lt;b&gt;&lt;font style=&quot;font-size: 14px;&quot;&gt;FIll Signup Form&lt;/font&gt;&lt;/b&gt;" style="text;html=1;strokeColor=none;fillColor=none;spacingLeft=4;spacingRight=4;whiteSpace=wrap;overflow=hidden;rotatable=0;points=[[0,0.5],[1,0.5]];portConstraint=eastwest;align=center;" parent="21ea969265ad0168-6" vertex="1">
          <mxGeometry y="26" width="110" height="44" as="geometry" />
        </mxCell>
        <mxCell id="21ea969265ad0168-30" value="&lt;font face=&quot;Helvetica&quot; style=&quot;font-size: 14px;&quot;&gt;Patient Record&lt;/font&gt;" style="html=1;rounded=0;shadow=0;comic=0;labelBackgroundColor=none;strokeWidth=2;fontFamily=Verdana;fontSize=12;align=center;shape=mxgraph.ios7ui.horLines;" parent="1" vertex="1">
          <mxGeometry x="750" y="72.5" width="143.1" height="51" as="geometry" />
        </mxCell>
        <mxCell id="BUxcxvhgxLQ51h7OhQjl-2" style="edgeStyle=orthogonalEdgeStyle;rounded=0;orthogonalLoop=1;jettySize=auto;html=1;exitX=1;exitY=0.5;exitDx=0;exitDy=0;" edge="1" parent="1" source="BUxcxvhgxLQ51h7OhQjl-1" target="21ea969265ad0168-8">
          <mxGeometry relative="1" as="geometry" />
        </mxCell>
        <mxCell id="BUxcxvhgxLQ51h7OhQjl-1" value="&lt;font style=&quot;font-size: 14px;&quot;&gt;Patient&lt;/font&gt;" style="rounded=0;whiteSpace=wrap;html=1;fillColor=#cce5ff;strokeColor=#36393d;" vertex="1" parent="1">
          <mxGeometry x="258" y="74" width="92" height="46" as="geometry" />
        </mxCell>
        <mxCell id="BUxcxvhgxLQ51h7OhQjl-13" style="edgeStyle=orthogonalEdgeStyle;rounded=0;orthogonalLoop=1;jettySize=auto;html=1;" edge="1" parent="1" source="BUxcxvhgxLQ51h7OhQjl-3" target="BUxcxvhgxLQ51h7OhQjl-10">
          <mxGeometry relative="1" as="geometry" />
        </mxCell>
        <mxCell id="BUxcxvhgxLQ51h7OhQjl-3" value="1.2" style="swimlane;html=1;fontStyle=0;childLayout=stackLayout;horizontal=1;startSize=26;horizontalStack=0;resizeParent=1;resizeLast=0;collapsible=1;marginBottom=0;swimlaneFillColor=#ffffff;align=center;rounded=1;shadow=0;comic=0;labelBackgroundColor=none;strokeWidth=1;fontFamily=Verdana;fontSize=12;fillColor=#dae8fc;strokeColor=#6c8ebf;" vertex="1" parent="1">
          <mxGeometry x="474" y="224" width="110" height="90" as="geometry" />
        </mxCell>
        <mxCell id="BUxcxvhgxLQ51h7OhQjl-4" value="&lt;span style=&quot;font-size: 14px;&quot;&gt;&lt;b&gt;Login Account&lt;/b&gt;&lt;/span&gt;" style="text;html=1;strokeColor=none;fillColor=none;spacingLeft=4;spacingRight=4;whiteSpace=wrap;overflow=hidden;rotatable=0;points=[[0,0.5],[1,0.5]];portConstraint=eastwest;align=center;" vertex="1" parent="BUxcxvhgxLQ51h7OhQjl-3">
          <mxGeometry y="26" width="110" height="44" as="geometry" />
        </mxCell>
        <mxCell id="BUxcxvhgxLQ51h7OhQjl-8" style="edgeStyle=orthogonalEdgeStyle;rounded=0;orthogonalLoop=1;jettySize=auto;html=1;exitX=1;exitY=0.5;exitDx=0;exitDy=0;" edge="1" parent="1" source="21ea969265ad0168-8" target="21ea969265ad0168-30">
          <mxGeometry relative="1" as="geometry" />
        </mxCell>
        <mxCell id="BUxcxvhgxLQ51h7OhQjl-21" style="edgeStyle=orthogonalEdgeStyle;rounded=0;orthogonalLoop=1;jettySize=auto;html=1;exitX=1;exitY=0.25;exitDx=0;exitDy=0;entryX=0;entryY=0.25;entryDx=0;entryDy=0;" edge="1" parent="1" source="BUxcxvhgxLQ51h7OhQjl-10" target="BUxcxvhgxLQ51h7OhQjl-14">
          <mxGeometry relative="1" as="geometry" />
        </mxCell>
        <mxCell id="BUxcxvhgxLQ51h7OhQjl-39" style="edgeStyle=orthogonalEdgeStyle;rounded=0;orthogonalLoop=1;jettySize=auto;html=1;exitX=0.5;exitY=1;exitDx=0;exitDy=0;" edge="1" parent="1" source="BUxcxvhgxLQ51h7OhQjl-10" target="BUxcxvhgxLQ51h7OhQjl-36">
          <mxGeometry relative="1" as="geometry" />
        </mxCell>
        <mxCell id="BUxcxvhgxLQ51h7OhQjl-10" value="1.3" style="swimlane;html=1;fontStyle=0;childLayout=stackLayout;horizontal=1;startSize=26;horizontalStack=0;resizeParent=1;resizeLast=0;collapsible=1;marginBottom=0;swimlaneFillColor=#ffffff;align=center;rounded=1;shadow=0;comic=0;labelBackgroundColor=none;strokeWidth=1;fontFamily=Verdana;fontSize=12;fillColor=#dae8fc;strokeColor=#6c8ebf;" vertex="1" parent="1">
          <mxGeometry x="474" y="397" width="110" height="90" as="geometry" />
        </mxCell>
        <mxCell id="BUxcxvhgxLQ51h7OhQjl-11" value="&lt;span style=&quot;font-size: 14px;&quot;&gt;&lt;b&gt;Account&lt;/b&gt;&lt;/span&gt;" style="text;html=1;strokeColor=none;fillColor=none;spacingLeft=4;spacingRight=4;whiteSpace=wrap;overflow=hidden;rotatable=0;points=[[0,0.5],[1,0.5]];portConstraint=eastwest;align=center;" vertex="1" parent="BUxcxvhgxLQ51h7OhQjl-10">
          <mxGeometry y="26" width="110" height="44" as="geometry" />
        </mxCell>
        <mxCell id="BUxcxvhgxLQ51h7OhQjl-12" value="&lt;font style=&quot;font-size: 14px;&quot;&gt;Admin&lt;/font&gt;" style="rounded=0;whiteSpace=wrap;html=1;fillColor=#cce5ff;strokeColor=#36393d;" vertex="1" parent="1">
          <mxGeometry x="879" y="516" width="92" height="46" as="geometry" />
        </mxCell>
        <mxCell id="BUxcxvhgxLQ51h7OhQjl-14" value="1.4" style="swimlane;html=1;fontStyle=0;childLayout=stackLayout;horizontal=1;startSize=26;horizontalStack=0;resizeParent=1;resizeLast=0;collapsible=1;marginBottom=0;swimlaneFillColor=#ffffff;align=center;rounded=1;shadow=0;comic=0;labelBackgroundColor=none;strokeWidth=1;fontFamily=Verdana;fontSize=12;fillColor=#dae8fc;strokeColor=#6c8ebf;" vertex="1" parent="1">
          <mxGeometry x="674" y="397" width="110" height="90" as="geometry" />
        </mxCell>
        <mxCell id="BUxcxvhgxLQ51h7OhQjl-15" value="&lt;span style=&quot;font-size: 14px;&quot;&gt;&lt;b&gt;Edit/Update&lt;br&gt;Account&lt;br&gt;&lt;/b&gt;&lt;/span&gt;" style="text;html=1;strokeColor=none;fillColor=none;spacingLeft=4;spacingRight=4;whiteSpace=wrap;overflow=hidden;rotatable=0;points=[[0,0.5],[1,0.5]];portConstraint=eastwest;align=center;" vertex="1" parent="BUxcxvhgxLQ51h7OhQjl-14">
          <mxGeometry y="26" width="110" height="64" as="geometry" />
        </mxCell>
        <mxCell id="BUxcxvhgxLQ51h7OhQjl-22" style="edgeStyle=orthogonalEdgeStyle;rounded=0;orthogonalLoop=1;jettySize=auto;html=1;exitX=0;exitY=0.5;exitDx=0;exitDy=0;entryX=1;entryY=0.5;entryDx=0;entryDy=0;" edge="1" parent="1" source="BUxcxvhgxLQ51h7OhQjl-15" target="BUxcxvhgxLQ51h7OhQjl-11">
          <mxGeometry relative="1" as="geometry" />
        </mxCell>
        <mxCell id="BUxcxvhgxLQ51h7OhQjl-9" style="edgeStyle=orthogonalEdgeStyle;rounded=0;orthogonalLoop=1;jettySize=auto;html=1;entryX=1;entryY=0.5;entryDx=0;entryDy=0;" edge="1" parent="1" source="21ea969265ad0168-30" target="BUxcxvhgxLQ51h7OhQjl-4">
          <mxGeometry relative="1" as="geometry" />
        </mxCell>
        <mxCell id="BUxcxvhgxLQ51h7OhQjl-23" style="edgeStyle=orthogonalEdgeStyle;rounded=0;orthogonalLoop=1;jettySize=auto;html=1;exitX=1;exitY=0.25;exitDx=0;exitDy=0;entryX=0.598;entryY=0.993;entryDx=0;entryDy=0;entryPerimeter=0;" edge="1" parent="1" source="BUxcxvhgxLQ51h7OhQjl-14" target="21ea969265ad0168-30">
          <mxGeometry relative="1" as="geometry" />
        </mxCell>
        <mxCell id="BUxcxvhgxLQ51h7OhQjl-25" style="edgeStyle=orthogonalEdgeStyle;rounded=0;orthogonalLoop=1;jettySize=auto;html=1;exitX=0.715;exitY=0.973;exitDx=0;exitDy=0;exitPerimeter=0;" edge="1" parent="1" source="21ea969265ad0168-30" target="BUxcxvhgxLQ51h7OhQjl-15">
          <mxGeometry relative="1" as="geometry" />
        </mxCell>
        <mxCell id="BUxcxvhgxLQ51h7OhQjl-28" style="edgeStyle=orthogonalEdgeStyle;rounded=0;orthogonalLoop=1;jettySize=auto;html=1;exitX=1;exitY=0.25;exitDx=0;exitDy=0;entryX=0;entryY=0.25;entryDx=0;entryDy=0;" edge="1" parent="1" source="BUxcxvhgxLQ51h7OhQjl-26" target="BUxcxvhgxLQ51h7OhQjl-10">
          <mxGeometry relative="1" as="geometry" />
        </mxCell>
        <mxCell id="BUxcxvhgxLQ51h7OhQjl-26" value="1.5" style="swimlane;html=1;fontStyle=0;childLayout=stackLayout;horizontal=1;startSize=26;horizontalStack=0;resizeParent=1;resizeLast=0;collapsible=1;marginBottom=0;swimlaneFillColor=#ffffff;align=center;rounded=1;shadow=0;comic=0;labelBackgroundColor=none;strokeWidth=1;fontFamily=Verdana;fontSize=12;fillColor=#dae8fc;strokeColor=#6c8ebf;" vertex="1" parent="1">
          <mxGeometry x="274" y="397" width="110" height="90" as="geometry" />
        </mxCell>
        <mxCell id="BUxcxvhgxLQ51h7OhQjl-27" value="&lt;span style=&quot;font-size: 14px;&quot;&gt;&lt;b&gt;Appointment&lt;br&gt;&lt;/b&gt;&lt;/span&gt;" style="text;html=1;spacingLeft=4;spacingRight=4;whiteSpace=wrap;overflow=hidden;rotatable=0;points=[[0,0.5],[1,0.5]];portConstraint=eastwest;align=center;fillColor=#FFFFFF;strokeColor=#6c8ebf;" vertex="1" parent="BUxcxvhgxLQ51h7OhQjl-26">
          <mxGeometry y="26" width="110" height="64" as="geometry" />
        </mxCell>
        <mxCell id="BUxcxvhgxLQ51h7OhQjl-30" style="edgeStyle=orthogonalEdgeStyle;rounded=0;orthogonalLoop=1;jettySize=auto;html=1;" edge="1" parent="1" source="BUxcxvhgxLQ51h7OhQjl-11" target="BUxcxvhgxLQ51h7OhQjl-27">
          <mxGeometry relative="1" as="geometry" />
        </mxCell>
        <mxCell id="BUxcxvhgxLQ51h7OhQjl-33" style="edgeStyle=orthogonalEdgeStyle;rounded=0;orthogonalLoop=1;jettySize=auto;html=1;entryX=0.5;entryY=0;entryDx=0;entryDy=0;" edge="1" parent="1" source="BUxcxvhgxLQ51h7OhQjl-31" target="BUxcxvhgxLQ51h7OhQjl-26">
          <mxGeometry relative="1" as="geometry" />
        </mxCell>
        <mxCell id="BUxcxvhgxLQ51h7OhQjl-31" value="&lt;font face=&quot;Helvetica&quot; style=&quot;font-size: 14px;&quot;&gt;Appointment Record&lt;/font&gt;" style="html=1;rounded=0;shadow=0;comic=0;labelBackgroundColor=none;strokeWidth=2;fontFamily=Verdana;fontSize=12;align=center;shape=mxgraph.ios7ui.horLines;" vertex="1" parent="1">
          <mxGeometry x="224.5" y="249" width="159" height="40" as="geometry" />
        </mxCell>
        <mxCell id="BUxcxvhgxLQ51h7OhQjl-32" style="edgeStyle=orthogonalEdgeStyle;rounded=0;orthogonalLoop=1;jettySize=auto;html=1;exitX=0.75;exitY=0;exitDx=0;exitDy=0;entryX=0.694;entryY=0.988;entryDx=0;entryDy=0;entryPerimeter=0;" edge="1" parent="1" source="BUxcxvhgxLQ51h7OhQjl-26" target="BUxcxvhgxLQ51h7OhQjl-31">
          <mxGeometry relative="1" as="geometry" />
        </mxCell>
        <mxCell id="BUxcxvhgxLQ51h7OhQjl-34" value="&lt;font style=&quot;font-size: 14px;&quot;&gt;Admin&lt;/font&gt;" style="rounded=0;whiteSpace=wrap;html=1;fillColor=#cce5ff;strokeColor=#36393d;" vertex="1" parent="1">
          <mxGeometry x="123.5" y="516" width="92" height="46" as="geometry" />
        </mxCell>
        <mxCell id="BUxcxvhgxLQ51h7OhQjl-41" style="edgeStyle=orthogonalEdgeStyle;rounded=0;orthogonalLoop=1;jettySize=auto;html=1;" edge="1" parent="1" source="BUxcxvhgxLQ51h7OhQjl-36" target="BUxcxvhgxLQ51h7OhQjl-40">
          <mxGeometry relative="1" as="geometry" />
        </mxCell>
        <mxCell id="BUxcxvhgxLQ51h7OhQjl-36" value="1.6" style="swimlane;html=1;fontStyle=0;childLayout=stackLayout;horizontal=1;startSize=26;horizontalStack=0;resizeParent=1;resizeLast=0;collapsible=1;marginBottom=0;swimlaneFillColor=#ffffff;align=center;rounded=1;shadow=0;comic=0;labelBackgroundColor=none;strokeWidth=1;fontFamily=Verdana;fontSize=12;fillColor=#dae8fc;strokeColor=#6c8ebf;" vertex="1" parent="1">
          <mxGeometry x="474" y="540" width="110" height="90" as="geometry" />
        </mxCell>
        <mxCell id="BUxcxvhgxLQ51h7OhQjl-37" value="&lt;span style=&quot;font-size: 14px;&quot;&gt;&lt;b&gt;Payment&lt;br&gt;&lt;/b&gt;&lt;/span&gt;" style="text;html=1;strokeColor=none;fillColor=none;spacingLeft=4;spacingRight=4;whiteSpace=wrap;overflow=hidden;rotatable=0;points=[[0,0.5],[1,0.5]];portConstraint=eastwest;align=center;" vertex="1" parent="BUxcxvhgxLQ51h7OhQjl-36">
          <mxGeometry y="26" width="110" height="34" as="geometry" />
        </mxCell>
        <mxCell id="BUxcxvhgxLQ51h7OhQjl-40" value="&lt;font face=&quot;Helvetica&quot; style=&quot;font-size: 18px;&quot;&gt;Payment Record&lt;/font&gt;" style="html=1;rounded=0;shadow=0;comic=0;labelBackgroundColor=none;strokeWidth=2;fontFamily=Verdana;fontSize=12;align=center;shape=mxgraph.ios7ui.horLines;" vertex="1" parent="1">
          <mxGeometry x="441.5" y="680" width="175" height="40" as="geometry" />
        </mxCell>
        <mxCell id="BUxcxvhgxLQ51h7OhQjl-42" value="Patient Info" style="text;html=1;strokeColor=none;fillColor=none;align=center;verticalAlign=middle;whiteSpace=wrap;rounded=0;" vertex="1" parent="1">
          <mxGeometry x="369" y="69" width="80" height="30" as="geometry" />
        </mxCell>
        <mxCell id="BUxcxvhgxLQ51h7OhQjl-43" value="Verify Login" style="text;html=1;strokeColor=none;fillColor=none;align=center;verticalAlign=middle;whiteSpace=wrap;rounded=0;" vertex="1" parent="1">
          <mxGeometry x="639" y="240" width="80" height="30" as="geometry" />
        </mxCell>
        <mxCell id="BUxcxvhgxLQ51h7OhQjl-44" value="Update Login" style="text;html=1;strokeColor=none;fillColor=none;align=center;verticalAlign=middle;whiteSpace=wrap;rounded=0;" vertex="1" parent="1">
          <mxGeometry x="587" y="389" width="80" height="30" as="geometry" />
        </mxCell>
        <mxCell id="BUxcxvhgxLQ51h7OhQjl-45" value="View Info" style="text;html=1;strokeColor=none;fillColor=none;align=center;verticalAlign=middle;whiteSpace=wrap;rounded=0;" vertex="1" parent="1">
          <mxGeometry x="590" y="458" width="80" height="30" as="geometry" />
        </mxCell>
        <mxCell id="BUxcxvhgxLQ51h7OhQjl-46" value="Request&lt;br&gt;Appointment" style="text;html=1;strokeColor=none;fillColor=none;align=center;verticalAlign=middle;whiteSpace=wrap;rounded=0;" vertex="1" parent="1">
          <mxGeometry x="389" y="459" width="80" height="29" as="geometry" />
        </mxCell>
        <mxCell id="BUxcxvhgxLQ51h7OhQjl-47" value="Confirm&lt;br&gt;Appointment" style="text;html=1;strokeColor=none;fillColor=none;align=center;verticalAlign=middle;whiteSpace=wrap;rounded=0;" vertex="1" parent="1">
          <mxGeometry x="389" y="383" width="80" height="29" as="geometry" />
        </mxCell>
        <mxCell id="BUxcxvhgxLQ51h7OhQjl-48" value="Pay Doctor" style="text;html=1;strokeColor=none;fillColor=none;align=center;verticalAlign=middle;whiteSpace=wrap;rounded=0;" vertex="1" parent="1">
          <mxGeometry x="530" y="500" width="80" height="29" as="geometry" />
        </mxCell>
        <mxCell id="BUxcxvhgxLQ51h7OhQjl-49" value="&lt;font style=&quot;font-size: 24px;&quot;&gt;&lt;b style=&quot;&quot;&gt;DFD Diagram for Patient&lt;/b&gt;&lt;/font&gt;" style="text;html=1;strokeColor=none;fillColor=none;align=center;verticalAlign=middle;whiteSpace=wrap;rounded=0;" vertex="1" parent="1">
          <mxGeometry x="390" y="800" width="280" height="30" as="geometry" />
        </mxCell>
        <mxCell id="BUxcxvhgxLQ51h7OhQjl-53" style="edgeStyle=orthogonalEdgeStyle;rounded=0;orthogonalLoop=1;jettySize=auto;html=1;entryX=0.5;entryY=0;entryDx=0;entryDy=0;" edge="1" parent="1" source="BUxcxvhgxLQ51h7OhQjl-50" target="BUxcxvhgxLQ51h7OhQjl-34">
          <mxGeometry relative="1" as="geometry" />
        </mxCell>
        <mxCell id="BUxcxvhgxLQ51h7OhQjl-50" value="1.7" style="swimlane;html=1;fontStyle=0;childLayout=stackLayout;horizontal=1;startSize=26;horizontalStack=0;resizeParent=1;resizeLast=0;collapsible=1;marginBottom=0;swimlaneFillColor=#ffffff;align=center;rounded=1;shadow=0;comic=0;labelBackgroundColor=none;strokeWidth=1;fontFamily=Verdana;fontSize=12;fillColor=#dae8fc;strokeColor=#6c8ebf;" vertex="1" parent="1">
          <mxGeometry x="114.5" y="352.5" width="110" height="90" as="geometry" />
        </mxCell>
        <mxCell id="BUxcxvhgxLQ51h7OhQjl-51" value="&lt;span style=&quot;font-size: 14px;&quot;&gt;&lt;b&gt;Update appointment status&lt;br&gt;&lt;/b&gt;&lt;/span&gt;" style="text;html=1;strokeColor=none;fillColor=none;spacingLeft=4;spacingRight=4;whiteSpace=wrap;overflow=hidden;rotatable=0;points=[[0,0.5],[1,0.5]];portConstraint=eastwest;align=center;" vertex="1" parent="BUxcxvhgxLQ51h7OhQjl-50">
          <mxGeometry y="26" width="110" height="54" as="geometry" />
        </mxCell>
        <mxCell id="BUxcxvhgxLQ51h7OhQjl-52" style="edgeStyle=orthogonalEdgeStyle;rounded=0;orthogonalLoop=1;jettySize=auto;html=1;exitX=0.282;exitY=0.971;exitDx=0;exitDy=0;entryX=0.75;entryY=0;entryDx=0;entryDy=0;exitPerimeter=0;" edge="1" parent="1" source="BUxcxvhgxLQ51h7OhQjl-31" target="BUxcxvhgxLQ51h7OhQjl-50">
          <mxGeometry relative="1" as="geometry" />
        </mxCell>
        <mxCell id="BUxcxvhgxLQ51h7OhQjl-56" value="" style="edgeStyle=orthogonalEdgeStyle;rounded=0;orthogonalLoop=1;jettySize=auto;html=1;exitX=0.828;exitY=1.001;exitDx=0;exitDy=0;exitPerimeter=0;" edge="1" parent="1" source="21ea969265ad0168-30" target="BUxcxvhgxLQ51h7OhQjl-54">
          <mxGeometry relative="1" as="geometry">
            <mxPoint x="868" y="124" as="sourcePoint" />
            <mxPoint x="895" y="516" as="targetPoint" />
          </mxGeometry>
        </mxCell>
        <mxCell id="BUxcxvhgxLQ51h7OhQjl-57" style="edgeStyle=orthogonalEdgeStyle;rounded=0;orthogonalLoop=1;jettySize=auto;html=1;entryX=0.5;entryY=0;entryDx=0;entryDy=0;" edge="1" parent="1" source="BUxcxvhgxLQ51h7OhQjl-54" target="BUxcxvhgxLQ51h7OhQjl-12">
          <mxGeometry relative="1" as="geometry" />
        </mxCell>
        <mxCell id="BUxcxvhgxLQ51h7OhQjl-54" value="1.8" style="swimlane;html=1;fontStyle=0;childLayout=stackLayout;horizontal=1;startSize=26;horizontalStack=0;resizeParent=1;resizeLast=0;collapsible=1;marginBottom=0;swimlaneFillColor=#ffffff;align=center;rounded=1;shadow=0;comic=0;labelBackgroundColor=none;strokeWidth=1;fontFamily=Verdana;fontSize=12;fillColor=#dae8fc;strokeColor=#6c8ebf;" vertex="1" parent="1">
          <mxGeometry x="870" y="352.5" width="110" height="90" as="geometry" />
        </mxCell>
        <mxCell id="BUxcxvhgxLQ51h7OhQjl-55" value="&lt;span style=&quot;font-size: 14px;&quot;&gt;&lt;b&gt;Update patient status&lt;br&gt;&lt;/b&gt;&lt;/span&gt;" style="text;html=1;strokeColor=none;fillColor=none;spacingLeft=4;spacingRight=4;whiteSpace=wrap;overflow=hidden;rotatable=0;points=[[0,0.5],[1,0.5]];portConstraint=eastwest;align=center;" vertex="1" parent="BUxcxvhgxLQ51h7OhQjl-54">
          <mxGeometry y="26" width="110" height="54" as="geometry" />
        </mxCell>
      </root>
    </mxGraphModel>
  </diagram>
  <diagram id="jU0u2yFOS1s0FVs4eJQr" name="Page-2">
    <mxGraphModel dx="1370" dy="1148" grid="1" gridSize="10" guides="1" tooltips="1" connect="1" arrows="1" fold="1" page="1" pageScale="1" pageWidth="1100" pageHeight="850" math="0" shadow="0">
      <root>
        <mxCell id="0" />
        <mxCell id="1" parent="0" />
        <mxCell id="prlREoOOM4LnNE4nV9ip-1" style="edgeStyle=orthogonalEdgeStyle;rounded=0;orthogonalLoop=1;jettySize=auto;html=1;exitX=0.5;exitY=1;exitDx=0;exitDy=0;" edge="1" parent="1" source="prlREoOOM4LnNE4nV9ip-2" target="prlREoOOM4LnNE4nV9ip-8">
          <mxGeometry relative="1" as="geometry" />
        </mxCell>
        <mxCell id="prlREoOOM4LnNE4nV9ip-2" value="1.1" style="swimlane;html=1;fontStyle=0;childLayout=stackLayout;horizontal=1;startSize=26;fillColor=#dae8fc;horizontalStack=0;resizeParent=1;resizeLast=0;collapsible=1;marginBottom=0;swimlaneFillColor=#ffffff;align=center;rounded=1;shadow=0;comic=0;labelBackgroundColor=none;strokeWidth=1;fontFamily=Verdana;fontSize=12;strokeColor=#6c8ebf;" vertex="1" parent="1">
          <mxGeometry x="474" y="50" width="110" height="90" as="geometry" />
        </mxCell>
        <mxCell id="prlREoOOM4LnNE4nV9ip-3" value="&lt;b&gt;&lt;font style=&quot;font-size: 14px;&quot;&gt;FIll Signup Form&lt;/font&gt;&lt;/b&gt;" style="text;html=1;strokeColor=none;fillColor=none;spacingLeft=4;spacingRight=4;whiteSpace=wrap;overflow=hidden;rotatable=0;points=[[0,0.5],[1,0.5]];portConstraint=eastwest;align=center;" vertex="1" parent="prlREoOOM4LnNE4nV9ip-2">
          <mxGeometry y="26" width="110" height="44" as="geometry" />
        </mxCell>
        <mxCell id="prlREoOOM4LnNE4nV9ip-4" value="&lt;font face=&quot;Helvetica&quot; style=&quot;font-size: 14px;&quot;&gt;Doctor Record&lt;/font&gt;" style="html=1;rounded=0;shadow=0;comic=0;labelBackgroundColor=none;strokeWidth=2;fontFamily=Verdana;fontSize=12;align=center;shape=mxgraph.ios7ui.horLines;" vertex="1" parent="1">
          <mxGeometry x="750" y="72.5" width="143.1" height="51" as="geometry" />
        </mxCell>
        <mxCell id="prlREoOOM4LnNE4nV9ip-5" style="edgeStyle=orthogonalEdgeStyle;rounded=0;orthogonalLoop=1;jettySize=auto;html=1;exitX=1;exitY=0.5;exitDx=0;exitDy=0;" edge="1" parent="1" source="prlREoOOM4LnNE4nV9ip-6" target="prlREoOOM4LnNE4nV9ip-3">
          <mxGeometry relative="1" as="geometry" />
        </mxCell>
        <mxCell id="prlREoOOM4LnNE4nV9ip-6" value="&lt;font style=&quot;font-size: 14px;&quot;&gt;Doctor&lt;/font&gt;" style="rounded=0;whiteSpace=wrap;html=1;fillColor=#cce5ff;strokeColor=#36393d;" vertex="1" parent="1">
          <mxGeometry x="258" y="74" width="92" height="46" as="geometry" />
        </mxCell>
        <mxCell id="prlREoOOM4LnNE4nV9ip-7" style="edgeStyle=orthogonalEdgeStyle;rounded=0;orthogonalLoop=1;jettySize=auto;html=1;" edge="1" parent="1" source="prlREoOOM4LnNE4nV9ip-8" target="prlREoOOM4LnNE4nV9ip-13">
          <mxGeometry relative="1" as="geometry" />
        </mxCell>
        <mxCell id="prlREoOOM4LnNE4nV9ip-8" value="1.2" style="swimlane;html=1;fontStyle=0;childLayout=stackLayout;horizontal=1;startSize=26;fillColor=#dae8fc;horizontalStack=0;resizeParent=1;resizeLast=0;collapsible=1;marginBottom=0;swimlaneFillColor=#ffffff;align=center;rounded=1;shadow=0;comic=0;labelBackgroundColor=none;strokeWidth=1;fontFamily=Verdana;fontSize=12;strokeColor=#6c8ebf;" vertex="1" parent="1">
          <mxGeometry x="474" y="224" width="110" height="90" as="geometry" />
        </mxCell>
        <mxCell id="prlREoOOM4LnNE4nV9ip-9" value="&lt;span style=&quot;font-size: 14px;&quot;&gt;&lt;b&gt;Login Account&lt;/b&gt;&lt;/span&gt;" style="text;html=1;strokeColor=none;fillColor=none;spacingLeft=4;spacingRight=4;whiteSpace=wrap;overflow=hidden;rotatable=0;points=[[0,0.5],[1,0.5]];portConstraint=eastwest;align=center;" vertex="1" parent="prlREoOOM4LnNE4nV9ip-8">
          <mxGeometry y="26" width="110" height="44" as="geometry" />
        </mxCell>
        <mxCell id="prlREoOOM4LnNE4nV9ip-10" style="edgeStyle=orthogonalEdgeStyle;rounded=0;orthogonalLoop=1;jettySize=auto;html=1;exitX=1;exitY=0.5;exitDx=0;exitDy=0;" edge="1" parent="1" source="prlREoOOM4LnNE4nV9ip-3" target="prlREoOOM4LnNE4nV9ip-4">
          <mxGeometry relative="1" as="geometry" />
        </mxCell>
        <mxCell id="prlREoOOM4LnNE4nV9ip-11" style="edgeStyle=orthogonalEdgeStyle;rounded=0;orthogonalLoop=1;jettySize=auto;html=1;exitX=1;exitY=0.25;exitDx=0;exitDy=0;entryX=0;entryY=0.25;entryDx=0;entryDy=0;" edge="1" parent="1" source="prlREoOOM4LnNE4nV9ip-13" target="prlREoOOM4LnNE4nV9ip-16">
          <mxGeometry relative="1" as="geometry" />
        </mxCell>
        <mxCell id="prlREoOOM4LnNE4nV9ip-13" value="1.3" style="swimlane;html=1;fontStyle=0;childLayout=stackLayout;horizontal=1;startSize=26;fillColor=#dae8fc;horizontalStack=0;resizeParent=1;resizeLast=0;collapsible=1;marginBottom=0;swimlaneFillColor=#ffffff;align=center;rounded=1;shadow=0;comic=0;labelBackgroundColor=none;strokeWidth=1;fontFamily=Verdana;fontSize=12;strokeColor=#6c8ebf;" vertex="1" parent="1">
          <mxGeometry x="474" y="397" width="110" height="90" as="geometry" />
        </mxCell>
        <mxCell id="prlREoOOM4LnNE4nV9ip-14" value="&lt;span style=&quot;font-size: 14px;&quot;&gt;&lt;b&gt;Account&lt;/b&gt;&lt;/span&gt;" style="text;html=1;strokeColor=none;fillColor=none;spacingLeft=4;spacingRight=4;whiteSpace=wrap;overflow=hidden;rotatable=0;points=[[0,0.5],[1,0.5]];portConstraint=eastwest;align=center;" vertex="1" parent="prlREoOOM4LnNE4nV9ip-13">
          <mxGeometry y="26" width="110" height="44" as="geometry" />
        </mxCell>
        <mxCell id="prlREoOOM4LnNE4nV9ip-15" value="&lt;font style=&quot;font-size: 14px;&quot;&gt;Admin&lt;/font&gt;" style="rounded=0;whiteSpace=wrap;html=1;fillColor=#cce5ff;strokeColor=#36393d;" vertex="1" parent="1">
          <mxGeometry x="879" y="516" width="92" height="46" as="geometry" />
        </mxCell>
        <mxCell id="prlREoOOM4LnNE4nV9ip-16" value="1.4" style="swimlane;html=1;fontStyle=0;childLayout=stackLayout;horizontal=1;startSize=26;fillColor=#dae8fc;horizontalStack=0;resizeParent=1;resizeLast=0;collapsible=1;marginBottom=0;swimlaneFillColor=#ffffff;align=center;rounded=1;shadow=0;comic=0;labelBackgroundColor=none;strokeWidth=1;fontFamily=Verdana;fontSize=12;strokeColor=#6c8ebf;" vertex="1" parent="1">
          <mxGeometry x="674" y="397" width="110" height="90" as="geometry" />
        </mxCell>
        <mxCell id="prlREoOOM4LnNE4nV9ip-17" value="&lt;span style=&quot;font-size: 14px;&quot;&gt;&lt;b&gt;Edit/Update&lt;br&gt;Account&lt;br&gt;&lt;/b&gt;&lt;/span&gt;" style="text;html=1;strokeColor=#6c8ebf;fillColor=#FFFFFF;spacingLeft=4;spacingRight=4;whiteSpace=wrap;overflow=hidden;rotatable=0;points=[[0,0.5],[1,0.5]];portConstraint=eastwest;align=center;" vertex="1" parent="prlREoOOM4LnNE4nV9ip-16">
          <mxGeometry y="26" width="110" height="64" as="geometry" />
        </mxCell>
        <mxCell id="prlREoOOM4LnNE4nV9ip-18" style="edgeStyle=orthogonalEdgeStyle;rounded=0;orthogonalLoop=1;jettySize=auto;html=1;exitX=0;exitY=0.5;exitDx=0;exitDy=0;entryX=1;entryY=0.5;entryDx=0;entryDy=0;" edge="1" parent="1" source="prlREoOOM4LnNE4nV9ip-17" target="prlREoOOM4LnNE4nV9ip-14">
          <mxGeometry relative="1" as="geometry" />
        </mxCell>
        <mxCell id="prlREoOOM4LnNE4nV9ip-19" style="edgeStyle=orthogonalEdgeStyle;rounded=0;orthogonalLoop=1;jettySize=auto;html=1;entryX=1;entryY=0.5;entryDx=0;entryDy=0;" edge="1" parent="1" source="prlREoOOM4LnNE4nV9ip-4" target="prlREoOOM4LnNE4nV9ip-9">
          <mxGeometry relative="1" as="geometry" />
        </mxCell>
        <mxCell id="prlREoOOM4LnNE4nV9ip-20" style="edgeStyle=orthogonalEdgeStyle;rounded=0;orthogonalLoop=1;jettySize=auto;html=1;exitX=1;exitY=0.25;exitDx=0;exitDy=0;entryX=0.598;entryY=0.993;entryDx=0;entryDy=0;entryPerimeter=0;" edge="1" parent="1" source="prlREoOOM4LnNE4nV9ip-16" target="prlREoOOM4LnNE4nV9ip-4">
          <mxGeometry relative="1" as="geometry" />
        </mxCell>
        <mxCell id="prlREoOOM4LnNE4nV9ip-21" style="edgeStyle=orthogonalEdgeStyle;rounded=0;orthogonalLoop=1;jettySize=auto;html=1;exitX=0.715;exitY=0.973;exitDx=0;exitDy=0;exitPerimeter=0;" edge="1" parent="1" source="prlREoOOM4LnNE4nV9ip-4" target="prlREoOOM4LnNE4nV9ip-17">
          <mxGeometry relative="1" as="geometry" />
        </mxCell>
        <mxCell id="prlREoOOM4LnNE4nV9ip-23" value="1.5" style="swimlane;html=1;fontStyle=0;childLayout=stackLayout;horizontal=1;startSize=26;fillColor=#dae8fc;horizontalStack=0;resizeParent=1;resizeLast=0;collapsible=1;marginBottom=0;swimlaneFillColor=#ffffff;align=center;rounded=1;shadow=0;comic=0;labelBackgroundColor=none;strokeWidth=1;fontFamily=Verdana;fontSize=12;strokeColor=#6c8ebf;" vertex="1" parent="1">
          <mxGeometry x="274" y="397" width="110" height="90" as="geometry" />
        </mxCell>
        <mxCell id="prlREoOOM4LnNE4nV9ip-24" value="&lt;span style=&quot;font-size: 14px;&quot;&gt;&lt;b&gt;Doctor Appointments&lt;br&gt;&lt;/b&gt;&lt;/span&gt;" style="text;html=1;strokeColor=none;fillColor=none;spacingLeft=4;spacingRight=4;whiteSpace=wrap;overflow=hidden;rotatable=0;points=[[0,0.5],[1,0.5]];portConstraint=eastwest;align=center;" vertex="1" parent="prlREoOOM4LnNE4nV9ip-23">
          <mxGeometry y="26" width="110" height="64" as="geometry" />
        </mxCell>
        <mxCell id="prlREoOOM4LnNE4nV9ip-26" style="edgeStyle=orthogonalEdgeStyle;rounded=0;orthogonalLoop=1;jettySize=auto;html=1;entryX=0.5;entryY=0;entryDx=0;entryDy=0;" edge="1" parent="1" source="prlREoOOM4LnNE4nV9ip-27" target="prlREoOOM4LnNE4nV9ip-23">
          <mxGeometry relative="1" as="geometry" />
        </mxCell>
        <mxCell id="prlREoOOM4LnNE4nV9ip-27" value="&lt;font face=&quot;Helvetica&quot; style=&quot;font-size: 14px;&quot;&gt;Appointment Record&lt;/font&gt;" style="html=1;rounded=0;shadow=0;comic=0;labelBackgroundColor=none;strokeWidth=2;fontFamily=Verdana;fontSize=12;align=center;shape=mxgraph.ios7ui.horLines;" vertex="1" parent="1">
          <mxGeometry x="224.5" y="249" width="159" height="40" as="geometry" />
        </mxCell>
        <mxCell id="prlREoOOM4LnNE4nV9ip-29" value="&lt;font style=&quot;font-size: 14px;&quot;&gt;Admin&lt;/font&gt;" style="rounded=0;whiteSpace=wrap;html=1;fillColor=#cce5ff;strokeColor=#36393d;" vertex="1" parent="1">
          <mxGeometry x="123.5" y="516" width="92" height="46" as="geometry" />
        </mxCell>
        <mxCell id="prlREoOOM4LnNE4nV9ip-34" value="Doctor Info" style="text;html=1;strokeColor=none;fillColor=none;align=center;verticalAlign=middle;whiteSpace=wrap;rounded=0;" vertex="1" parent="1">
          <mxGeometry x="369" y="69" width="80" height="30" as="geometry" />
        </mxCell>
        <mxCell id="prlREoOOM4LnNE4nV9ip-35" value="Verify Login" style="text;html=1;strokeColor=none;fillColor=none;align=center;verticalAlign=middle;whiteSpace=wrap;rounded=0;" vertex="1" parent="1">
          <mxGeometry x="639" y="240" width="80" height="30" as="geometry" />
        </mxCell>
        <mxCell id="prlREoOOM4LnNE4nV9ip-36" value="Update info" style="text;html=1;strokeColor=none;fillColor=none;align=center;verticalAlign=middle;whiteSpace=wrap;rounded=0;" vertex="1" parent="1">
          <mxGeometry x="587" y="389" width="80" height="30" as="geometry" />
        </mxCell>
        <mxCell id="prlREoOOM4LnNE4nV9ip-37" value="View Info" style="text;html=1;strokeColor=none;fillColor=none;align=center;verticalAlign=middle;whiteSpace=wrap;rounded=0;" vertex="1" parent="1">
          <mxGeometry x="590" y="458" width="80" height="30" as="geometry" />
        </mxCell>
        <mxCell id="prlREoOOM4LnNE4nV9ip-39" value="View&lt;br&gt;Appointments" style="text;html=1;strokeColor=none;fillColor=none;align=center;verticalAlign=middle;whiteSpace=wrap;rounded=0;" vertex="1" parent="1">
          <mxGeometry x="390" y="461" width="80" height="29" as="geometry" />
        </mxCell>
        <mxCell id="prlREoOOM4LnNE4nV9ip-41" value="&lt;font style=&quot;font-size: 24px;&quot;&gt;&lt;b style=&quot;&quot;&gt;DFD Diagram for Doctor&lt;/b&gt;&lt;/font&gt;" style="text;html=1;strokeColor=none;fillColor=none;align=center;verticalAlign=middle;whiteSpace=wrap;rounded=0;" vertex="1" parent="1">
          <mxGeometry x="410" y="660" width="280" height="30" as="geometry" />
        </mxCell>
        <mxCell id="prlREoOOM4LnNE4nV9ip-42" style="edgeStyle=orthogonalEdgeStyle;rounded=0;orthogonalLoop=1;jettySize=auto;html=1;entryX=0.5;entryY=0;entryDx=0;entryDy=0;" edge="1" parent="1" source="prlREoOOM4LnNE4nV9ip-43" target="prlREoOOM4LnNE4nV9ip-29">
          <mxGeometry relative="1" as="geometry" />
        </mxCell>
        <mxCell id="prlREoOOM4LnNE4nV9ip-43" value="1.7" style="swimlane;html=1;fontStyle=0;childLayout=stackLayout;horizontal=1;startSize=26;fillColor=#dae8fc;horizontalStack=0;resizeParent=1;resizeLast=0;collapsible=1;marginBottom=0;swimlaneFillColor=#ffffff;align=center;rounded=1;shadow=0;comic=0;labelBackgroundColor=none;strokeWidth=1;fontFamily=Verdana;fontSize=12;strokeColor=#6c8ebf;" vertex="1" parent="1">
          <mxGeometry x="114.5" y="352.5" width="110" height="90" as="geometry" />
        </mxCell>
        <mxCell id="prlREoOOM4LnNE4nV9ip-44" value="&lt;span style=&quot;font-size: 14px;&quot;&gt;&lt;b&gt;Update appointment status&lt;br&gt;&lt;/b&gt;&lt;/span&gt;" style="text;html=1;strokeColor=none;fillColor=none;spacingLeft=4;spacingRight=4;whiteSpace=wrap;overflow=hidden;rotatable=0;points=[[0,0.5],[1,0.5]];portConstraint=eastwest;align=center;" vertex="1" parent="prlREoOOM4LnNE4nV9ip-43">
          <mxGeometry y="26" width="110" height="54" as="geometry" />
        </mxCell>
        <mxCell id="prlREoOOM4LnNE4nV9ip-45" style="edgeStyle=orthogonalEdgeStyle;rounded=0;orthogonalLoop=1;jettySize=auto;html=1;exitX=0.282;exitY=0.971;exitDx=0;exitDy=0;entryX=0.75;entryY=0;entryDx=0;entryDy=0;exitPerimeter=0;" edge="1" parent="1" source="prlREoOOM4LnNE4nV9ip-27" target="prlREoOOM4LnNE4nV9ip-43">
          <mxGeometry relative="1" as="geometry" />
        </mxCell>
        <mxCell id="prlREoOOM4LnNE4nV9ip-46" value="" style="edgeStyle=orthogonalEdgeStyle;rounded=0;orthogonalLoop=1;jettySize=auto;html=1;exitX=0.828;exitY=1.001;exitDx=0;exitDy=0;exitPerimeter=0;" edge="1" parent="1" source="prlREoOOM4LnNE4nV9ip-4" target="prlREoOOM4LnNE4nV9ip-48">
          <mxGeometry relative="1" as="geometry">
            <mxPoint x="868" y="124" as="sourcePoint" />
            <mxPoint x="895" y="516" as="targetPoint" />
          </mxGeometry>
        </mxCell>
        <mxCell id="prlREoOOM4LnNE4nV9ip-47" style="edgeStyle=orthogonalEdgeStyle;rounded=0;orthogonalLoop=1;jettySize=auto;html=1;entryX=0.5;entryY=0;entryDx=0;entryDy=0;" edge="1" parent="1" source="prlREoOOM4LnNE4nV9ip-48" target="prlREoOOM4LnNE4nV9ip-15">
          <mxGeometry relative="1" as="geometry" />
        </mxCell>
        <mxCell id="prlREoOOM4LnNE4nV9ip-48" value="1.8" style="swimlane;html=1;fontStyle=0;childLayout=stackLayout;horizontal=1;startSize=26;fillColor=#dae8fc;horizontalStack=0;resizeParent=1;resizeLast=0;collapsible=1;marginBottom=0;swimlaneFillColor=#ffffff;align=center;rounded=1;shadow=0;comic=0;labelBackgroundColor=none;strokeWidth=1;fontFamily=Verdana;fontSize=12;strokeColor=#6c8ebf;" vertex="1" parent="1">
          <mxGeometry x="870" y="352.5" width="110" height="90" as="geometry" />
        </mxCell>
        <mxCell id="prlREoOOM4LnNE4nV9ip-49" value="&lt;span style=&quot;font-size: 14px;&quot;&gt;&lt;b&gt;Update doctor status&lt;br&gt;&lt;/b&gt;&lt;/span&gt;" style="text;html=1;strokeColor=none;fillColor=none;spacingLeft=4;spacingRight=4;whiteSpace=wrap;overflow=hidden;rotatable=0;points=[[0,0.5],[1,0.5]];portConstraint=eastwest;align=center;" vertex="1" parent="prlREoOOM4LnNE4nV9ip-48">
          <mxGeometry y="26" width="110" height="54" as="geometry" />
        </mxCell>
        <mxCell id="prlREoOOM4LnNE4nV9ip-50" value="Verified account" style="text;html=1;strokeColor=none;fillColor=none;align=center;verticalAlign=middle;whiteSpace=wrap;rounded=0;" vertex="1" parent="1">
          <mxGeometry x="449" y="340" width="80" height="30" as="geometry" />
        </mxCell>
        <mxCell id="prlREoOOM4LnNE4nV9ip-51" style="edgeStyle=orthogonalEdgeStyle;rounded=0;orthogonalLoop=1;jettySize=auto;html=1;" edge="1" parent="1" source="prlREoOOM4LnNE4nV9ip-24" target="prlREoOOM4LnNE4nV9ip-14">
          <mxGeometry relative="1" as="geometry" />
        </mxCell>
      </root>
    </mxGraphModel>
  </diagram>
</mxfile>
